<svg xmlns="http://www.w3.org/2000/svg" width="1240" height="1240"><path d="M579 129c-1.375.44-4.043.845-5.929.9-1.886.055-4.811.52-6.5 1.032-1.689.513-5.096 1.473-7.571 2.134-43.897 11.726-70.716 37.09-81.346 76.934-1.393 5.225-3.07 13.1-3.726 17.5-1.888 12.67-1.481 36.873.899 53.5 1.142 7.975 2.21 16.975 2.375 20l.298 5.5-4.9.5c-3.854.393-5.336 1.085-6.937 3.239-1.934 2.601-1.98 3.282-.904 13.573 2.237 21.39 13.806 43.601 27.685 53.149 4.5 3.097 4.826 3.848 7.616 17.539 4.744 23.278 13.081 45.642 22.716 60.932 6.614 10.496 8.049 12.583 13.831 20.111 16.804 21.877 38.604 35.205 65.953 40.323 15.027 2.812 41.414.503 54.94-4.808 26.788-10.518 46.854-31.023 62.687-64.058 6.69-13.957 12.646-31.23 15.69-45.5.586-2.75 1.529-7.112 2.094-9.693.566-2.581 1.029-6.008 1.029-7.615 0-3.143 3.337-8.192 5.414-8.192 2.118 0 13.161-12.228 15.869-17.572 6.207-12.249 11.82-42.415 9.327-50.123-.557-1.722-1.615-2.261-4.91-2.5-3.559-.258-4.152-.61-3.888-2.305.172-1.1.692-12.8 1.155-26 1.195-34.027-.752-51.806-7.602-69.427-10.284-26.456-32.065-46.73-57.071-53.126-4.188-1.071-8.226-1.947-8.974-1.947-.748 0-3.038-1.051-5.09-2.337-16.334-10.231-38.148-18.302-58.345-21.587-7.547-1.227-42.111-1.285-45.885-.076m131 392.326c0 9.203-3.22 40.952-4.987 49.174-.473 2.2-1.39 7.375-2.038 11.5-.648 4.125-1.535 8.625-1.97 10-.435 1.375-1.337 5.2-2.005 8.5-.668 3.3-1.564 7.125-1.991 8.5-.427 1.375-1.331 4.525-2.009 7-.678 2.475-1.578 5.625-2 7a381.3 381.3 0 00-2.028 7c-4.153 14.83-22.136 62.299-24.6 64.933-.958 1.024-2.73-2.161-3.414-6.134-.682-3.97-1.759-9.086-4.061-19.299-.496-2.2-1.35-6.25-1.897-9-.547-2.75-1.402-6.8-1.899-9-1.672-7.395-2.873-12.917-6.527-30-2.437-11.4-4.182-17.412-5.296-18.25-1.194-.899-7.058-1.25-20.887-1.25-10.575 0-19.917.265-20.761.588-2.072.796-2.999 3.994-7.072 24.412-1.919 9.625-4.689 23.125-6.155 30-1.466 6.875-3.015 14.3-3.442 16.5-.427 2.2-1.309 6.7-1.961 10-.652 3.3-1.508 7.816-1.902 10.037-1.455 8.2-2.949 8.376-6.078.713-1.292-3.163-3.355-8-4.587-10.75-6.998-15.634-15.568-38.904-20.439-55.5-1.211-4.125-2.553-8.625-2.982-10-1.093-3.504-2.831-10.161-5.937-22.75-.509-2.062-1.446-6.45-2.082-9.75-.635-3.3-1.545-7.8-2.022-10-.476-2.2-1.331-7.6-1.899-12-.569-4.4-1.494-11.375-2.055-15.5-.562-4.125-1.087-12.127-1.166-17.781-.079-5.655-.449-10.47-.822-10.701-.373-.231-3.57 1.042-7.104 2.829-5.715 2.889-17.995 7.395-26.425 9.696-9.524 2.6-19.449 5.221-22.5 5.943-23.523 5.566-60.439 15.818-70.5 19.578-3.85 1.44-8.125 2.971-9.5 3.403-4.105 1.289-12.958 5.257-22 9.86-19.73 10.045-34.845 22.501-47.116 38.827-8.371 11.138-9.358 13.367-11.266 25.439-2.896 18.32-5.461 67.711-5.916 113.907l-.202 20.5-4 .249c-5.717.355-15.287 2.16-20.3 3.829-15.305 5.097-28.679 17.305-35.66 32.554-5.599 12.23-5.54 10.881-5.54 125.884 0 70.912.352 107.636 1.065 111.185 1.745 8.681 6.258 19.137 10.921 25.299 3.65 4.822 13.007 13.412 17.443 16.011 2.657 1.558 7.811 3.978 11.451 5.379 6.534 2.514 7.05 2.551 39.87 2.9l33.25.354V1063l-29.25-.015c-29.957-.015-31.892-.224-39.385-4.238-4.743-2.541-11.053-10.297-13.332-16.387-1.997-5.338-2.033-7.312-2.033-110.031 0-77.782.305-105.652 1.188-108.713 3.027-10.489 11.939-19.401 22.428-22.428 3.14-.906 80.084-1.185 324.5-1.177 282.752.009 320.968.188 325.359 1.52 9.867 2.993 17.455 10.411 20.695 20.233 1.727 5.235 1.829 11.456 1.806 110.641l-.023 105.095-2.331 5.666c-2.917 7.091-5.915 10.865-11.49 14.458-8.813 5.68 5.92 5.345-235.25 5.361l-223.618.015-3.87 6.75c-2.128 3.713-7.53 10.463-12.003 15l-8.134 8.25h237.142c236.517 0 237.161-.005 244.621-2.064 12.671-3.497 24.833-11.782 33.102-22.548 4.727-6.155 8.736-15.527 10.86-25.388.59-2.742.979-46.113.994-111 .026-116.256.138-113.801-5.748-126.275-7.214-15.286-20.394-27.231-35.428-32.11-7.382-2.396-10.059-2.911-18.3-3.522l-8-.593-.612-38c-.954-59.248-3.228-91.595-7.531-107.108-2.744-9.893-12.561-23.84-24.045-34.159C893.109 584.66 877.046 573 875.57 573c-.265 0-2.639-1.266-5.276-2.814-14.029-8.235-45.377-19.112-72.294-25.084a1459.5 1459.5 0 01-14-3.216 1925.487 1925.487 0 00-13-3.007c-24.592-5.529-44.98-12.878-55.68-20.069-2.299-1.546-4.437-2.81-4.75-2.81-.314 0-.57 2.397-.57 5.326m-96.839 19.63l-18.339.544-2.411 2.806c-2.775 3.229-3.128 8.298-1.261 18.134 2.442 12.864 3.986 16.944 7.797 20.597 4.938 4.734 9.665 5.963 22.93 5.963 9.245 0 11.908-.359 15.622-2.105 6.534-3.071 10.122-7.65 11.428-14.585.602-3.195 1.538-7.186 2.079-8.868.542-1.682 1.268-5.774 1.615-9.093.593-5.672.456-6.231-2.273-9.286-3.059-3.423-8.503-5.131-15.348-4.814-1.925.089-11.753.407-21.839.707M578.5 845.147c-9.961 1.813-16.094 3.286-20.871 5.011-8.264 2.983-18.842 9.88-25.23 16.449-5.624 5.784-14.399 18.782-14.399 21.329 0 .597-.855 2.993-1.899 5.325-4.269 9.526-6.115 22.111-6.108 41.623.004 10.111.425 20.011.937 22 .511 1.989 1.504 6.316 2.206 9.616 1.687 7.925 6.855 20.273 11.268 26.922 8.642 13.019 25.33 24.405 41.844 28.55 8.59 2.157 28.073 4.135 34.263 3.479 29.868-3.162 43.646-8.521 57.154-22.23 14.181-14.393 21.589-35.309 23.022-65.007.855-17.714-3.343-39.608-10.3-53.714-4.776-9.686-6.439-12.006-13.629-19.02-9.163-8.937-18.785-14.276-31.758-17.619-13.901-3.583-34.974-4.813-46.5-2.714M429.965 931.75c-.038 91.364-.163 93.981-4.89 101.629-2.635 4.263-6.075 6.774-11.737 8.566-4.002 1.266-7.699 1.167-19.612-.53l-4.773-.68.273 17.827.274 17.828 7 1.226c23.763 4.161 46.727-.87 59.738-13.089 9.312-8.746 14.434-19.388 17.724-36.828 1.95-10.336 2.038-14.474 2.038-96.25V846h-46l-.035 85.75M715 935v89h36.198c37.731 0 48.538-.77 59.802-4.264 17.661-5.477 31.089-16.721 34.916-29.236.673-2.2 1.681-4.944 2.241-6.097.588-1.212.856-7.123.635-14-.474-14.771-2.77-21.499-9.554-28-4.389-4.205-15.515-10.403-18.675-10.403-3.387 0-1.251-2.636 4.197-5.18 5.872-2.742 13.023-8.979 14.958-13.046 5.663-11.898 5.687-11.999 5.728-23.274.038-10.3-.16-11.424-3.104-17.651-1.73-3.658-4.945-8.452-7.146-10.653-4.142-4.142-15.441-10.196-19.03-10.196-1.126 0-2.286-.386-2.578-.857-.638-1.032-9.045-2.721-20.497-4.118-4.625-.564-24.087-1.025-43.25-1.025H715v89m-131-51.077c-7.783 2.997-10.685 4.892-14.106 9.211-4.716 5.955-6.364 9.355-8.917 18.404-1.882 6.669-2.244 10.398-2.226 22.962.031 22.343 3.59 34.036 13.276 43.621 7.611 7.531 18.938 10.349 31.174 7.756 7.063-1.497 11.555-3.913 15.886-8.542 7.586-8.108 10.791-17.254 11.805-33.683 1.804-29.225-4.128-48.418-17.536-56.734-7.928-4.917-20.921-6.243-29.356-2.995m177.441-.631c-.272.711-.371 8.248-.218 16.75l.277 15.458 11-.061c9.223-.051 11.666-.407 15.124-2.206 7.85-4.083 10.168-8.536 9.491-18.233-.335-4.8-5.176-9.644-11.519-11.527-6.379-1.895-23.448-2.022-24.155-.181M761 968.423V987h12.378c16.63 0 21.525-1.975 25.836-10.421 2.827-5.539 2.163-14.085-1.464-18.841-4.515-5.918-8.478-7.194-23.5-7.565l-13.25-.328v18.578" fill="undefined" fill-rule="evenodd"/></svg>